<?xml version="1.0" standalone="no"?><!DOCTYPE svg PUBLIC "-//W3C//DTD SVG 1.1//EN" "http://www.w3.org/Graphics/SVG/1.1/DTD/svg11.dtd"><svg t="1675307734135" class="icon" viewBox="0 0 1024 1024" version="1.1" xmlns="http://www.w3.org/2000/svg" p-id="2748" xmlns:xlink="http://www.w3.org/1999/xlink" width="200" height="200"><path d="M688.313 544.391c-31.394-31.845-81.836-60.967-151.295-87.368V262.725c41.654 4.01 80.124 14.077 115.406 30.195 17.354 7.927 37.028-4.803 37.028-23.882v-66.995c0-10.496-6.124-20.136-15.811-24.176-33.422-13.939-78.96-22.209-136.623-24.811V90.163c0-14.522-11.772-26.294-26.294-26.294h-17.036c-14.522 0-26.294 11.772-26.294 26.294v64.714c-57.034 4.558-103.907 25.261-140.611 62.115-36.704 36.862-55.056 80.625-55.056 131.281 0 50.363 15.851 92.448 47.554 126.272 31.695 33.831 81.068 62.724 148.114 86.687V748.25c-27.002-0.902-59.836-8.112-98.518-21.612-18.181-6.343-34.1-12.871-47.758-19.585-17.365-8.536-37.56 4.36-37.56 23.71v66.892c0 9.892 5.443 19.166 14.344 23.482 50.679 24.577 107.18 37.143 169.492 37.692v77.455c0 14.522 11.772 26.294 26.294 26.294h17.036c14.522 0 26.294-11.772 26.294-26.294V855.64c61.885-6.363 110.412-26.313 145.613-59.836 35.184-33.515 52.785-76.969 52.785-130.363-0.001-48.845-15.702-89.19-47.104-121.05z m-220.92-115.573c-47.023-24.271-70.527-53.845-70.527-88.737 0-41.555 23.504-66.737 70.527-75.537v164.274z m69.626 317.159V588.534c48.527 22.151 72.806 50.054 72.806 83.727 0 41.563-24.279 66.135-72.806 73.716z" p-id="2749"></path></svg>