<svg xmlns="http://www.w3.org/2000/svg" xmlns:xlink="http://www.w3.org/1999/xlink" width="72" height="72" viewBox="0 0 72 72" fill="none"><g opacity="1" transform="translate(0 0)  rotate(0 36 36)"><path id="Vector" fill-rule="evenodd" style="fill:#FFFFFF" transform="translate(4 12)  rotate(0 32 24)" opacity="1" d="M7.76 0C3.47 0 0 3.58 0 8L0 40C0 44.42 3.47 48 7.76 48C12.04 48 15.51 44.42 15.51 40L15.51 8C15.51 3.58 12.04 0 7.76 0ZM54.3 0C58.59 0 62.06 3.58 62.06 8L62.06 40C62.06 44.42 58.59 48 54.3 48C50.02 48 46.55 44.42 46.55 40L46.55 8C46.55 3.58 50.02 0 54.3 0ZM38.79 32C38.79 27.58 35.31 24 31.03 24C26.75 24 23.27 27.58 23.27 32C23.27 36.42 26.75 40 31.03 40C35.31 40 38.79 36.42 38.79 32Z" /></g></svg>