<svg xmlns="http://www.w3.org/2000/svg" xmlns:xlink="http://www.w3.org/1999/xlink" width="13" height="13" viewBox="0 0 13 13" fill="none"><path id="Vector" fill-rule="evenodd" style="fill:#22C55E" transform="translate(0.0020014444986982127 0.00008138020833348136)  rotate(0 6.1375 6.495833333333334)" opacity="1" d="M0.29,7.52C0.01,7.8 -0.07,8.22 0.06,8.57C0.19,8.83 0.37,9.05 0.59,9.23L6.51,15.15C6.6,15.25 6.71,15.35 6.82,15.43C7.21,15.68 7.73,15.64 8.07,15.3L14.14,9.23C14.36,9.05 14.54,8.83 14.67,8.57C14.8,8.22 14.72,7.8 14.44,7.52C14.15,7.23 13.74,7.15 13.38,7.29C13.13,7.41 12.9,7.6 12.72,7.82L8.37,12.18L8.37,1.43C8.4,1.14 8.37,0.85 8.27,0.58C8.12,0.24 7.77,0 7.37,0C6.96,0 6.61,0.24 6.46,0.58C6.36,0.86 6.33,1.14 6.36,1.43L6.36,12.18L2.01,7.82C1.83,7.6 1.6,7.41 1.35,7.29C0.99,7.15 0.58,7.23 0.29,7.52Z " /></svg>